nColumns=19
nRows=119
DataType=double
version=3
OpenSimVersion=4.1
endheader
time	ground_force_1_vx	ground_force_1_vy	ground_force_1_vz	ground_force_1_px	ground_force_1_py	ground_force_1_pz	ground_force_1_mx	ground_force_1_my	ground_force_1_mz	ground_force_2_vx	ground_force_2_vy	ground_force_2_vz	ground_force_2_px	ground_force_2_py	ground_force_2_pz	ground_force_2_mx	ground_force_2_my	ground_force_2_mz
1.30833	0	0	0	-0.00108031	0	0.000407068	0	0	0	0	0	0	-0.00108026	0	0.000407013	0	0	0
1.31667	0	0	0	-0.00108031	0	0.000407066	0	0	0	-10.8243	32.1881	-3.79399	1.20902	0	-0.345027	-0	0.82965	-0
1.325	0	0	0	-0.00108032	0	0.000407064	0	0	0	-26.5696	83.3856	-3.44595	1.22192	0	-0.355672	-0	0.073674	-0
1.33333	0	0	0	-0.00108032	0	0.000407062	0	0	0	-49.1025	171.161	0.401883	1.22381	0	-0.354579	0	-0.848903	0
1.34167	0	0	0	-0.00108033	0	0.00040706	0	0	0	-67.4365	286.178	7.44016	1.217	0	-0.350816	0	-1.63095	0
1.35	0	0	0	-0.00108033	0	0.000407057	0	0	0	-71.7034	419.258	13.9931	1.19916	0	-0.347936	0	-1.91965	0
1.35833	0	0	0	-0.00108034	0	0.000407055	0	0	0	-68.1942	574.187	15.6694	1.17455	0	-0.347078	0	-1.44549	0
1.36667	0	0	0	-0.00108034	0	0.000407053	0	0	0	-70.8414	756.493	11.4005	1.15283	0	-0.346547	0	-0.14683	0
1.375	0	0	0	-0.00108035	0	0.000407051	0	0	0	-79.7805	959.138	3.41379	1.13557	0	-0.344564	-0	1.7718	-0
1.38333	0	0	0	-0.00108035	0	0.000407049	0	0	0	-83.3032	1157.82	-6.10227	1.11835	0	-0.341892	-0	3.87655	-0
1.39167	0	0	0	-0.00108036	0	0.000407047	0	0	0	-76.4454	1321.25	-15.6269	1.1001	0	-0.340275	-0	5.62306	-0
1.4	0	0	0	-0.00108037	0	0.000407045	0	0	0	-70.1866	1431.4	-21.686	1.08392	0	-0.340346	-0	6.52243	-0
1.40833	0	0	0	-0.00108037	0	0.000407043	0	0	0	-76.272	1494.42	-19.183	1.0718	0	-0.341268	-0	6.30829	-0
1.41667	0	0	0	-0.00108038	0	0.00040704	0	0	0	-87.5074	1531.1	-6.67394	1.06126	0	-0.341824	-0	5.04227	-0
1.425	0	0	0	-0.00108038	0	0.000407038	0	0	0	-88.1601	1555.32	10.2686	1.049	0	-0.341847	-0	3.10029	-0
1.43333	0	0	0	-0.00108039	0	0.000407036	0	0	0	-72.9572	1566.97	23.3194	1.03482	0	-0.342003	-0	1.03524	-0
1.44167	0	0	0	-0.00108039	0	0.000407034	0	0	0	-49.5099	1561.89	28.6734	1.02056	0	-0.342477	0	-0.615261	0
1.45	0	0	0	-0.0010804	0	0.000407032	0	0	0	-26.0921	1539.88	28.5893	1.00721	0	-0.342597	0	-1.48171	0
1.45833	0	0	0	-0.0010804	0	0.00040703	0	0	0	-3.62356	1502.65	26.3083	0.994186	0	-0.341758	0	-1.42698	0
1.46667	0	0	0	-0.00108041	0	0.000407028	0	0	0	20.2235	1448.73	21.8157	0.980754	0	-0.34022	0	-0.535625	0
1.475	0	0	0	-0.00108041	0	0.000407026	0	0	0	44.8653	1375.26	13.5348	0.966969	0	-0.338595	-0	0.93536	-0
1.48333	0	0	0	-0.00108042	0	0.000407024	0	0	0	66.4755	1283	2.2869	0.953566	0	-0.337001	-0	2.62647	-0
1.49167	0	0	0	-0.00108042	0	0.000407022	0	0	0	82.6057	1177.08	-8.47866	0.940898	0	-0.335035	-0	4.1621	-0
1.5	0	0	0	-0.00108043	0	0.00040702	0	0	0	94.7415	1063.29	-16.0534	0.928345	0	-0.332399	-0	5.23755	-0
1.50833	0	0	0	-0.00108043	0	0.000407018	0	0	0	103.835	944.298	-20.602	0.915564	0	-0.32941	-0	5.67734	-0
1.51667	0	0	0	-0.00108044	0	0.000407016	0	0	0	109.004	821.007	-23.654	0.902915	0	-0.326768	-0	5.44763	-0
1.525	0	0	0	-0.00108044	0	0.000407014	0	0	0	109.454	696.996	-25.5381	0.890759	0	-0.324834	-0	4.63267	-0
1.53333	0	0	0	-0.00108045	0	0.000407012	0	0	0	106.072	579.297	-25.171	0.878826	0	-0.323162	-0	3.39868	-0
1.54167	0	0	0	-0.00108045	0	0.00040701	0	0	0	99.4757	473.188	-22.0645	0.866762	0	-0.320896	-0	1.95805	-0
1.55	0	0	0	-0.00108046	0	0.000407008	0	0	0	89.0268	379.369	-17.5839	0.85535	0	-0.317984	-0	0.531853	-0
1.55833	0	0	0	-0.00108046	0	0.000407006	0	0	0	75.3032	297.356	-13.7748	0.845893	0	-0.315381	0	-0.690771	0
1.56667	0	0	0	-0.00108047	0	0.000407004	0	0	0	60.7148	227.477	-11.3617	0.838952	0	-0.313844	0	-1.58608	0
1.575	0	0	0	-0.00108047	0	0.000407002	0	0	0	48.1023	169.885	-9.46517	0.833425	0	-0.312344	0	-2.10778	0
1.58333	0	0	0	-0.00108048	0	0.000407001	0	0	0	38.2533	123.414	-7.20142	0.828539	0	-0.308412	0	-2.27552	0
1.59167	0	0	0	-0.00108048	0	0.000406999	0	0	0	30.0597	86.1869	-4.902	0.826462	0	-0.300712	0	-2.15273	0
1.6	0	0	0	-0.00108049	0	0.000406997	0	0	0	23.1292	57.2834	-3.43719	0.828689	0	-0.289819	0	-1.82789	0
1.60833	0	0	0	-0.00108049	0	0.000406995	0	0	0	17.6121	36.2085	-2.82783	0.835598	0	-0.275573	0	-1.40246	0
1.61667	0	0	0	-0.0010805	0	0.000406993	0	0	0	0	0	0	-0.00108044	0	0.000406917	0	0	0
1.625	0	0	0	-0.0010805	0	0.000406991	0	0	0	0	0	0	-0.00108044	0	0.000406915	0	0	0
1.63333	0	0	0	-0.00108051	0	0.00040699	0	0	0	0	0	0	-0.00108045	0	0.000406913	0	0	0
1.64167	0	0	0	-0.00108051	0	0.000406988	0	0	0	0	0	0	-0.00108045	0	0.00040691	0	0	0
1.65	0	0	0	-0.00108052	0	0.000406986	0	0	0	0	0	0	-0.00108046	0	0.000406908	0	0	0
1.65833	0	0	0	-0.00108052	0	0.000406984	0	0	0	0	0	0	-0.00108046	0	0.000406906	0	0	0
1.66667	0	0	0	-0.00108052	0	0.000406983	0	0	0	0	0	0	-0.00108046	0	0.000406904	0	0	0
1.675	0	0	0	-0.00108053	0	0.000406981	0	0	0	0	0	0	-0.00108047	0	0.000406902	0	0	0
1.68333	0	0	0	-0.00108053	0	0.000406979	0	0	0	0	0	0	-0.00108047	0	0.0004069	0	0	0
1.69167	-19.316	53.6003	-6.26335	1.27518	0	-0.243714	0	-3.1966	0	0	0	0	-0.00108047	0	0.000406897	0	0	0
1.7	-42.9125	119.22	-11.2356	1.27846	0	-0.247447	0	-2.71291	0	0	0	0	-0.00108048	0	0.000406895	0	0	0
1.70833	-70.3959	208.916	-18.6036	1.27946	0	-0.250581	0	-1.75368	0	0	0	0	-0.00108048	0	0.000406893	0	0	0
1.71667	-83.6522	307.066	-28.196	1.27174	0	-0.254362	0	-0.514586	0	0	0	0	-0.00108049	0	0.000406891	0	0	0
1.725	-77.6924	413.093	-38.1409	1.25175	0	-0.259135	-0	0.678941	-0	0	0	0	-0.00108049	0	0.000406889	0	0	0
1.73333	-72.6448	535.233	-44.8505	1.22766	0	-0.26369	-0	1.46235	-0	0	0	0	-0.00108049	0	0.000406887	0	0	0
1.74167	-84.5406	672.986	-45.0125	1.20807	0	-0.267061	-0	1.55521	-0	0	0	0	-0.0010805	0	0.000406885	0	0	0
1.75	-107.572	817.868	-37.9891	1.19186	0	-0.26997	-0	0.869772	-0	0	0	0	-0.0010805	0	0.000406883	0	0	0
1.75833	-124.104	963.917	-25.9107	1.17367	0	-0.273218	0	-0.442107	0	0	0	0	-0.0010805	0	0.000406881	0	0	0
1.76667	-124.586	1107.57	-11.9562	1.15255	0	-0.276411	0	-2.02397	0	0	0	0	-0.00108051	0	0.00040688	0	0	0
1.775	-116.245	1239.74	0.497738	1.13204	0	-0.278706	0	-3.41882	0	0	0	0	-0.00108051	0	0.000406878	0	0	0
1.78333	-110.332	1348.15	7.85689	1.11468	0	-0.27992	0	-4.20687	0	0	0	0	-0.00108051	0	0.000406876	0	0	0
1.79167	-108.789	1426.44	7.6387	1.10007	0	-0.280442	0	-4.13226	0	0	0	0	-0.00108052	0	0.000406874	0	0	0
1.8	-106.208	1476.99	0.708173	1.08647	0	-0.280615	0	-3.17442	0	0	0	0	-0.00108052	0	0.000406872	0	0	0
1.80833	-98.1764	1507.04	-8.93789	1.07282	0	-0.280372	0	-1.53877	0	0	0	0	-0.00108052	0	0.000406871	0	0	0
1.81667	-84.7787	1522.71	-17.5891	1.05908	0	-0.279587	-0	0.420984	-0	0	0	0	-0.00108053	0	0.000406869	0	0	0
1.825	-66.9344	1524.9	-24.4639	1.04532	0	-0.27854	-0	2.30648	-0	0	0	0	-0.00108053	0	0.000406867	0	0	0
1.83333	-45.4802	1511.11	-30.3851	1.0317	0	-0.277789	-0	3.7631	-0	0	0	0	-0.00108053	0	0.000406865	0	0	0
1.84167	-22.0049	1480.76	-34.8186	1.01835	0	-0.277579	-0	4.53976	-0	0	0	0	-0.00108054	0	0.000406864	0	0	0
1.85	2.50164	1436.4	-35.6929	1.00508	0	-0.277616	-0	4.52531	-0	0	0	0	-0.00108054	0	0.000406862	0	0	0
1.85833	27.4947	1379.98	-32.0579	0.991506	0	-0.277643	-0	3.76193	-0	0	0	0	-0.00108054	0	0.000406861	0	0	0
1.86667	51.7697	1310.41	-25.4938	0.977719	0	-0.277861	-0	2.42681	-0	0	0	0	-0.00108055	0	0.000406859	0	0	0
1.875	73.0499	1226.33	-18.317	0.964235	0	-0.278623	-0	0.78198	-0	0	0	0	-0.00108055	0	0.000406858	0	0	0
1.88333	90.1323	1129.96	-11.348	0.95116	0	-0.279845	0	-0.889427	0	0	0	0	-0.00108055	0	0.000406856	0	0	0
1.89167	103.279	1025.52	-4.22843	0.938122	0	-0.281063	0	-2.33747	0	0	0	0	-0.00108055	0	0.000406855	0	0	0
1.9	112.654	916.065	2.7212	0.924805	0	-0.282041	0	-3.38101	0	0	0	0	-0.00108056	0	0.000406853	0	0	0
1.90833	117.246	803.631	8.0931	0.911412	0	-0.282976	0	-3.92785	0	0	0	0	-0.00108056	0	0.000406852	0	0	0
1.91667	116.106	690.135	10.9122	0.898256	0	-0.284099	0	-3.9811	0	0	0	0	-0.00108056	0	0.00040685	0	0	0
1.925	109.465	578.619	11.7022	0.885484	0	-0.285228	0	-3.62788	0	0	0	0	-0.00108056	0	0.000406849	0	0	0
1.93333	98.5057	473.724	11.6332	0.873282	0	-0.285871	0	-3.00978	0	0	0	0	-0.00108057	0	0.000406848	0	0	0
1.94167	84.4355	379.329	11.1274	0.861936	0	-0.285809	0	-2.28553	0	0	0	0	-0.00108057	0	0.000406846	0	0	0
1.95	68.4891	296.764	9.83475	0.852225	0	-0.285365	0	-1.59923	0	0	0	0	-0.00108057	0	0.000406845	0	0	0
1.95833	52.6894	226.419	7.75188	0.844917	0	-0.284849	0	-1.05988	0	0	0	0	-0.00108057	0	0.000406844	0	0	0
1.96667	39.4772	168.408	5.70701	0.839074	0	-0.283602	0	-0.728896	0	0	0	0	-0.00108058	0	0.000406843	0	0	0
1.975	29.8412	121.92	4.49833	0.833455	0	-0.279637	0	-0.613532	0	0	0	0	-0.00108058	0	0.000406842	0	0	0
1.98333	22.8145	85.3788	3.94752	0.829617	0	-0.271604	0	-0.669565	0	0	0	0	-0.00108058	0	0.000406841	0	0	0
1.99167	17.0675	57.1221	3.21718	0.829981	0	-0.259995	0	-0.816285	0	0	0	0	-0.00108058	0	0.000406839	0	0	0
2	12.1633	35.9201	1.93574	0.833224	0	-0.244287	0	-0.959301	0	0	0	0	-0.00108058	0	0.000406838	0	0	0
2.00833	0	0	0	-0.00108066	0	0.00040693	0	0	0	0	0	0	-0.00108059	0	0.000406837	0	0	0
2.01667	0	0	0	-0.00108066	0	0.00040693	0	0	0	0	0	0	-0.00108059	0	0.000406836	0	0	0
2.025	0	0	0	-0.00108066	0	0.000406929	0	0	0	0	0	0	-0.00108059	0	0.000406835	0	0	0
2.03333	0	0	0	-0.00108066	0	0.000406928	0	0	0	0	0	0	-0.00108059	0	0.000406834	0	0	0
2.04167	0	0	0	-0.00108066	0	0.000406928	0	0	0	0	0	0	-0.00108059	0	0.000406834	0	0	0
2.05	0	0	0	-0.00108067	0	0.000406927	0	0	0	0	0	0	-0.00108059	0	0.000406833	0	0	0
2.05833	0	0	0	-0.00108067	0	0.000406926	0	0	0	0	0	0	-0.0010806	0	0.000406832	0	0	0
2.06667	0	0	0	-0.00108067	0	0.000406926	0	0	0	0	0	0	-0.0010806	0	0.000406831	0	0	0
2.075	0	0	0	-0.00108067	0	0.000406925	0	0	0	-13.0772	39.0306	-2.33898	1.24749	0	-0.345405	-0	1.64906	-0
2.08333	0	0	0	-0.00108067	0	0.000406924	0	0	0	-27.7431	90.1675	-0.175146	1.24962	0	-0.361858	-0	1.05015	-0
2.09167	0	0	0	-0.00108067	0	0.000406924	0	0	0	-44.8955	169.873	5.95232	1.24759	0	-0.361839	-0	0.139594	-0
2.1	0	0	0	-0.00108068	0	0.000406923	0	0	0	-54.7423	267.851	14.7327	1.23776	0	-0.357721	0	-0.842894	0
2.10833	0	0	0	-0.00108068	0	0.000406923	0	0	0	-52.1358	376.314	22.2746	1.21799	0	-0.355235	0	-1.58366	0
2.11667	0	0	0	-0.00108068	0	0.000406922	0	0	0	-47.2261	498.408	25.8012	1.19423	0	-0.355225	0	-1.79186	0
2.125	0	0	0	-0.00108068	0	0.000406922	0	0	0	-53.8924	639.72	26.1722	1.17514	0	-0.3552	0	-1.2959	0
2.13333	0	0	0	-0.00108068	0	0.000406922	0	0	0	-69.5442	800.702	25.1542	1.15979	0	-0.353288	0	-0.105232	0
2.14167	0	0	0	-0.00108068	0	0.000406921	0	0	0	-78.8071	972.996	21.5862	1.14271	0	-0.3503	-0	1.57105	-0
2.15	0	0	0	-0.00108068	0	0.000406921	0	0	0	-72.3504	1140.12	13.1717	1.12293	0	-0.347921	-0	3.34951	-0
2.15833	0	0	0	-0.00108068	0	0.000406921	0	0	0	-57.4215	1281.34	2.11157	1.10391	0	-0.34701	-0	4.75513	-0
2.16667	0	0	0	-0.00108068	0	0.00040692	0	0	0	-49.7337	1382.3	-4.03671	1.08838	0	-0.347218	-0	5.36675	-0
2.175	0	0	0	-0.00108068	0	0.00040692	0	0	0	-54.2349	1445.97	0.800632	1.07578	0	-0.347587	-0	4.98072	-0
2.18333	0	0	0	-0.00108068	0	0.00040692	0	0	0	-61.5804	1485.09	14.4543	1.06397	0	-0.347724	-0	3.70481	-0
2.19167	0	0	0	-0.00108068	0	0.00040692	0	0	0	-60.198	1507.41	28.3964	1.05129	0	-0.348055	-0	1.91976	-0
2.2	0	0	0	-0.00108069	0	0.000406919	0	0	0	-47.1877	1514.34	36.0747	1.03749	0	-0.348843	-0	0.131001	-0
2.20833	0	0	0	-0.00108069	0	0.000406919	0	0	0	-28.1212	1506.99	37.7095	1.02338	0	-0.34953	0	-1.20016	0
2.21667	0	0	0	-0.00108069	0	0.000406919	0	0	0	-7.67211	1487.31	36.8674	1.00953	0	-0.349303	0	-1.76879	0
2.225	0	0	0	-0.00108069	0	0.000406919	0	0	0	14.1947	1454.06	34.6072	0.995855	0	-0.348186	0	-1.46713	0
2.23333	0	0	0	-0.00108069	0	0.000406919	0	0	0	37.9015	1402.94	28.8778	0.982289	0	-0.346924	0	-0.380337	0
2.24167	0	0	0	-0.00108069	0	0.000406919	0	0	0	60.9668	1331.59	18.7499	0.969007	0	-0.345911	-0	1.24448	-0
2.25	0	0	0	-0.00108069	0	0.000406919	0	0	0	80.3434	1242.88	6.81421	0.956117	0	-0.344734	-0	3.05876	-0
2.25833	0	0	0	-0.00108069	0	0.000406919	0	0	0	95.1566	1143.03	-3.34783	0.943482	0	-0.342758	-0	4.69857	-0
2.26667	0	0	0	-0.00108069	0	0.000406919	0	0	0	105.92	1035.94	-10.656	0.930997	0	-0.340067	-0	5.8691	-0
2.275	0	0	0	-0.00108069	0	0.000406919	0	0	0	113.379	921.957	-16.3438	0.918553	0	-0.337446	-0	6.39584	-0
2.28333	0	0	0	-0.00108069	0	0.000406919	0	0	0	117.254	803.036	-21.0102	0.906139	0	-0.335493	-0	6.23534	-0
2.29167	0	0	0	-0.00108069	0	0.000406919	0	0	0	116.696	685.396	-23.3425	0.893821	0	-0.333944	-0	5.46132	-0
